<mxfile host="app.diagrams.net" modified="2023-03-03T11:59:12.786Z" agent="5.0 (Windows NT 10.0; Win64; x64) AppleWebKit/537.36 (KHTML, like Gecko) Chrome/110.0.0.0 Safari/537.36" etag="lz3k3Vw6fdQOnWOpCCad" version="21.0.2" type="github">
  <diagram id="C5RBs43oDa-KdzZeNtuy" name="Page-1">
    <mxGraphModel dx="1046" dy="541" grid="1" gridSize="10" guides="1" tooltips="1" connect="1" arrows="1" fold="1" page="1" pageScale="1" pageWidth="827" pageHeight="1169" math="0" shadow="0">
      <root>
        <mxCell id="WIyWlLk6GJQsqaUBKTNV-0" />
        <mxCell id="WIyWlLk6GJQsqaUBKTNV-1" parent="WIyWlLk6GJQsqaUBKTNV-0" />
        <mxCell id="DRpgMA1zB9BugUx_Lz3O-2" value="αγγελία" style="edgeStyle=orthogonalEdgeStyle;rounded=0;orthogonalLoop=1;jettySize=auto;html=1;" edge="1" parent="WIyWlLk6GJQsqaUBKTNV-1" source="DRpgMA1zB9BugUx_Lz3O-0" target="DRpgMA1zB9BugUx_Lz3O-1">
          <mxGeometry relative="1" as="geometry">
            <Array as="points">
              <mxPoint x="380" y="250" />
              <mxPoint x="380" y="250" />
            </Array>
          </mxGeometry>
        </mxCell>
        <mxCell id="DRpgMA1zB9BugUx_Lz3O-0" value="Χρήστες" style="rounded=0;whiteSpace=wrap;html=1;" vertex="1" parent="WIyWlLk6GJQsqaUBKTNV-1">
          <mxGeometry x="270" y="240" width="70" height="30" as="geometry" />
        </mxCell>
        <mxCell id="DRpgMA1zB9BugUx_Lz3O-3" value="αποστολή &lt;br&gt;μηνύματος" style="edgeStyle=orthogonalEdgeStyle;rounded=0;orthogonalLoop=1;jettySize=auto;html=1;" edge="1" parent="WIyWlLk6GJQsqaUBKTNV-1" source="DRpgMA1zB9BugUx_Lz3O-1" target="DRpgMA1zB9BugUx_Lz3O-0">
          <mxGeometry x="-0.0622" y="20" relative="1" as="geometry">
            <Array as="points">
              <mxPoint x="380" y="260" />
              <mxPoint x="380" y="260" />
            </Array>
            <mxPoint as="offset" />
          </mxGeometry>
        </mxCell>
        <mxCell id="DRpgMA1zB9BugUx_Lz3O-5" value="υποέγκριση" style="edgeStyle=orthogonalEdgeStyle;rounded=0;orthogonalLoop=1;jettySize=auto;html=1;" edge="1" parent="WIyWlLk6GJQsqaUBKTNV-1" source="DRpgMA1zB9BugUx_Lz3O-1" target="DRpgMA1zB9BugUx_Lz3O-4">
          <mxGeometry x="-0.2249" y="10" relative="1" as="geometry">
            <Array as="points">
              <mxPoint x="540" y="250" />
              <mxPoint x="540" y="250" />
            </Array>
            <mxPoint as="offset" />
          </mxGeometry>
        </mxCell>
        <mxCell id="DRpgMA1zB9BugUx_Lz3O-8" value="εγκεκριμένη αγγελία&amp;nbsp;" style="edgeStyle=orthogonalEdgeStyle;rounded=0;orthogonalLoop=1;jettySize=auto;html=1;" edge="1" parent="WIyWlLk6GJQsqaUBKTNV-1" source="DRpgMA1zB9BugUx_Lz3O-1" target="DRpgMA1zB9BugUx_Lz3O-7">
          <mxGeometry x="-0.0359" y="-60" relative="1" as="geometry">
            <Array as="points">
              <mxPoint x="440" y="340" />
              <mxPoint x="440" y="340" />
            </Array>
            <mxPoint as="offset" />
          </mxGeometry>
        </mxCell>
        <mxCell id="DRpgMA1zB9BugUx_Lz3O-1" value="Αξιολόγηση νέων αγγελιών" style="ellipse;whiteSpace=wrap;html=1;rounded=0;" vertex="1" parent="WIyWlLk6GJQsqaUBKTNV-1">
          <mxGeometry x="415" y="215" width="80" height="80" as="geometry" />
        </mxCell>
        <mxCell id="DRpgMA1zB9BugUx_Lz3O-10" value="Αποδοχή" style="edgeStyle=orthogonalEdgeStyle;rounded=0;orthogonalLoop=1;jettySize=auto;html=1;" edge="1" parent="WIyWlLk6GJQsqaUBKTNV-1" source="DRpgMA1zB9BugUx_Lz3O-4" target="DRpgMA1zB9BugUx_Lz3O-1">
          <mxGeometry relative="1" as="geometry">
            <Array as="points">
              <mxPoint x="510" y="260" />
              <mxPoint x="510" y="260" />
            </Array>
          </mxGeometry>
        </mxCell>
        <mxCell id="DRpgMA1zB9BugUx_Lz3O-4" value="Διαχειριστές&amp;nbsp;" style="whiteSpace=wrap;html=1;rounded=0;" vertex="1" parent="WIyWlLk6GJQsqaUBKTNV-1">
          <mxGeometry x="560" y="235" width="75" height="35" as="geometry" />
        </mxCell>
        <mxCell id="DRpgMA1zB9BugUx_Lz3O-9" value="επεξεργασία μετά από 60 μέρες" style="edgeStyle=orthogonalEdgeStyle;rounded=0;orthogonalLoop=1;jettySize=auto;html=1;" edge="1" parent="WIyWlLk6GJQsqaUBKTNV-1" source="DRpgMA1zB9BugUx_Lz3O-7" target="DRpgMA1zB9BugUx_Lz3O-1">
          <mxGeometry x="0.0359" y="-80" relative="1" as="geometry">
            <Array as="points">
              <mxPoint x="470" y="330" />
              <mxPoint x="470" y="330" />
            </Array>
            <mxPoint as="offset" />
          </mxGeometry>
        </mxCell>
        <mxCell id="DRpgMA1zB9BugUx_Lz3O-7" value="Αγγελίες" style="shape=partialRectangle;whiteSpace=wrap;html=1;left=0;right=0;fillColor=none;" vertex="1" parent="WIyWlLk6GJQsqaUBKTNV-1">
          <mxGeometry x="395" y="350" width="120" height="30" as="geometry" />
        </mxCell>
      </root>
    </mxGraphModel>
  </diagram>
</mxfile>
